<svg xmlns="http://www.w3.org/2000/svg" aria-hidden="true"
    style="position:absolute;width:0;height:0;overflow:hidden">
    <defs>
        <symbol id="logout" viewBox="0 0 32 32">
            <path fill="#cbccd0" d="M20 28H4V4h16v2h4V0H0v32h24v-6h-4v2z" />
            <path fill="#cbccd0"
                d="m24.586 8.586-2.828 2.828L24.344 14H14v4h10.344l-2.586 2.586 2.828 2.828L32 16l-7.414-7.414z" />
        </symbol>

        <symbol id="google" viewBox="0 0 31.25 32">
            <path fill="#2196f3"
                d="M31.394 13.038c.139 0 .251.115.251.258V16c0 1.012-.092 2.002-.268 2.962C30.015 26.419 23.6 32.054 15.911 32 7.283 31.939.379 24.8.398 15.964.417 7.144 7.405 0 16.021 0c4.221 0 8.052 1.715 10.864 4.501a.263.263 0 0 1 .004.369l-3.736 3.826a.247.247 0 0 1-.35.005C21.038 6.98 18.65 5.924 16.02 5.924c-5.43 0-9.802 4.446-9.839 10.007-.037 5.597 4.382 10.146 9.839 10.146 4.427 0 8.172-2.995 9.407-7.115h-9.155a.255.255 0 0 1-.252-.258v-5.408c0-.142.113-.258.252-.258h15.121z" />
            <path fill="#1e88e5"
                d="M31.393 13.038h-1.886c.139 0 .251.115.251.258V16c0 1.012-.092 2.002-.268 2.962-1.299 7.114-7.198 12.57-14.414 13.009.276.017.554.026.834.028 7.689.054 14.104-5.581 15.466-13.038.176-.96.268-1.95.268-2.962v-2.704a.255.255 0 0 0-.252-.258z" />
            <path fill="#f44336"
                d="M7.084 11.78 2.339 8.269C5.001 3.338 10.131 0 16.021 0c4.222 0 8.052 1.715 10.864 4.501a.263.263 0 0 1 .004.369l-3.736 3.826a.247.247 0 0 1-.35.005C21.038 6.98 18.65 5.924 16.02 5.924c-3.963 0-7.379 2.399-8.937 5.857z" />
            <path fill="#e53935"
                d="m5.714 10.767 1.37 1.014c1.423-3.156 4.393-5.429 7.914-5.802l.079-.009a9.768 9.768 0 0 0-.941-.046c-3.58 0-6.7 1.933-8.421 4.843zM24.999 4.501a.263.263 0 0 1 .004.369l-3.032 3.105c.291.226.569.468.832.726a.246.246 0 0 0 .35-.005l3.736-3.826a.264.264 0 0 0-.004-.369C24.073 1.715 20.243 0 16.021 0c-.317 0-.631.011-.943.03 3.847.235 7.32 1.894 9.921 4.471z" />
            <path fill="#4caf50"
                d="M27.482 26.874C24.629 30.027 20.55 32 16.021 32c-6.117 0-11.412-3.6-13.977-8.844l4.844-3.4c1.454 3.704 4.995 6.32 9.133 6.32a9.678 9.678 0 0 0 6.716-2.713l4.745 3.51z" />
            <path fill="#43a047"
                d="M6.888 19.756 5.46 20.759c1.659 3.165 4.922 5.318 8.675 5.318.317 0 .631-.016.941-.046-3.726-.364-6.846-2.855-8.187-6.274zM16.021 32c4.529 0 8.608-1.974 11.461-5.126l-1.162-.86c-2.679 3.414-6.698 5.679-11.239 5.957.311.019.625.029.941.029z" />
            <path fill="#ffc107"
                d="M6.182 16c0 1.328.251 2.595.707 3.756l-4.844 3.4A16.237 16.237 0 0 1 .398 16c0-2.804.704-5.439 1.941-7.731l4.745 3.511A10.238 10.238 0 0 0 6.182 16z" />
            <path fill="#ffb300"
                d="m5.46 20.759 1.428-1.003A10.256 10.256 0 0 1 6.181 16c0-1.507.323-2.937.902-4.22l-1.37-1.014a10.244 10.244 0 0 0-1.418 5.164 10.225 10.225 0 0 0 1.164 4.829z" />
        </symbol>

        <symbol id="close" viewBox="0 0 32 32">
            <path fill="none" stroke="#52555f" stroke-width="4.571"
                d="m2.286 2.286 27.429 27.429M2.286 29.714 29.715 2.285" />
        </symbol>

        <symbol id="reports" viewBox="0 0 32 32">
            <path fill="#52555f" d="M6.667 12.267h4v13.067h-4V12.267zm7.466-5.6h3.733v18.667h-3.733V6.667zM21.6 17.333h3.733v8H21.6v-8z"/>
        </symbol>

        <symbol id="calendar" viewBox="0 0 32 32">
            <path
                d="M17.4754 2.06715H16.1634V1.74609C16.1634 1.4225 15.9011 1.16016 15.5775 1.16016C15.2539 1.16016 14.9916 1.4225 14.9916 1.74609V2.06715H13.3747V1.74609C13.3747 1.4225 13.1123 1.16016 12.7887 1.16016C12.4652 1.16016 12.2028 1.4225 12.2028 1.74609V2.06715H10.5859V1.74609C10.5859 1.4225 10.3236 1.16016 10 1.16016C9.67641 1.16016 9.41406 1.4225 9.41406 1.74609V2.06715H7.79719V1.74609C7.79719 1.4225 7.53484 1.16016 7.21125 1.16016C6.88766 1.16016 6.62531 1.4225 6.62531 1.74609V2.06715H5.00844V1.74609C5.00844 1.4225 4.74609 1.16016 4.4225 1.16016C4.09891 1.16016 3.83656 1.4225 3.83656 1.74609V2.06715H2.52461C1.13254 2.06715 0 3.19969 0 4.59172V16.3157C0 17.7078 1.13254 18.8403 2.52461 18.8403H17.4754C18.8675 18.8403 20 17.7078 20 16.3157V4.59172C20 3.19969 18.8675 2.06715 17.4754 2.06715ZM18.8281 16.3157C18.8281 17.0616 18.2213 17.6684 17.4754 17.6684H2.52461C1.77871 17.6684 1.17188 17.0616 1.17188 16.3157V6.73258H18.8281V16.3157ZM18.8281 5.5607H1.17188V4.59172C1.17188 3.84586 1.77871 3.23902 2.52461 3.23902H3.83656V3.46555C3.83656 3.78914 4.09891 4.05148 4.4225 4.05148C4.74609 4.05148 5.00844 3.78914 5.00844 3.46555V3.23902H6.62531V3.46555C6.62531 3.78914 6.88766 4.05148 7.21125 4.05148C7.53484 4.05148 7.79719 3.78914 7.79719 3.46555V3.23902H9.41406V3.46555C9.41406 3.78914 9.67641 4.05148 10 4.05148C10.3236 4.05148 10.5859 3.78914 10.5859 3.46555V3.23902H12.2028V3.46555C12.2028 3.78914 12.4652 4.05148 12.7887 4.05148C13.1123 4.05148 13.3747 3.78914 13.3747 3.46555V3.23902H14.9916V3.46555C14.9916 3.78914 15.2539 4.05148 15.5775 4.05148C15.9011 4.05148 16.1634 3.78914 16.1634 3.46555V3.23902H17.4754C18.2213 3.23902 18.8281 3.84586 18.8281 4.59172V5.5607Z"
                fill="#52555F" />
            <path
                d="M6.5318 7.98145H4.21973C3.89613 7.98145 3.63379 8.24379 3.63379 8.56738V10.9595C3.63379 11.2831 3.89613 11.5455 4.21973 11.5455H6.5318C6.85539 11.5455 7.11773 11.2831 7.11773 10.9595V8.56738C7.11773 8.24379 6.85543 7.98145 6.5318 7.98145ZM5.94586 10.3736H4.80566V9.15332H5.94586V10.3736Z"
                fill="#52555F" />
            <path
                d="M11.1561 7.98145H8.84399C8.5204 7.98145 8.25806 8.24379 8.25806 8.56738V10.9595C8.25806 11.2831 8.5204 11.5455 8.84399 11.5455H11.1561C11.4797 11.5455 11.742 11.2831 11.742 10.9595V8.56738C11.742 8.24379 11.4797 7.98145 11.1561 7.98145ZM10.5701 10.3736H9.42993V9.15332H10.5701V10.3736Z"
                fill="#52555F" />
            <path
                d="M15.7802 7.98145H13.4681C13.1445 7.98145 12.8822 8.24379 12.8822 8.56738V10.9595C12.8822 11.2831 13.1445 11.5455 13.4681 11.5455H15.7802C16.1038 11.5455 16.3661 11.2831 16.3661 10.9595V8.56738C16.3661 8.24379 16.1038 7.98145 15.7802 7.98145ZM15.1943 10.3736H14.0541V9.15332H15.1943V10.3736Z"
                fill="#52555F" />
            <path
                d="M6.5318 12.5259H4.21973C3.89613 12.5259 3.63379 12.7882 3.63379 13.1118V15.504C3.63379 15.8276 3.89613 16.0899 4.21973 16.0899H6.5318C6.85539 16.0899 7.11773 15.8276 7.11773 15.504V13.1118C7.11773 12.7882 6.85543 12.5259 6.5318 12.5259ZM5.94586 14.9181H4.80566V13.6978H5.94586V14.9181Z"
                fill="#52555F" />
            <path
                d="M11.1561 12.5259H8.84399C8.5204 12.5259 8.25806 12.7882 8.25806 13.1118V15.504C8.25806 15.8276 8.5204 16.0899 8.84399 16.0899H11.1561C11.4797 16.0899 11.742 15.8276 11.742 15.504V13.1118C11.742 12.7882 11.4797 12.5259 11.1561 12.5259ZM10.5701 14.9181H9.42993V13.6978H10.5701V14.9181Z"
                fill="#52555F" />
            <path
                d="M15.7802 12.5259H13.4681C13.1445 12.5259 12.8822 12.7882 12.8822 13.1118V15.504C12.8822 15.8276 13.1445 16.0899 13.4681 16.0899H15.7802C16.1038 16.0899 16.3661 15.8276 16.3661 15.504V13.1118C16.3661 12.7882 16.1038 12.5259 15.7802 12.5259ZM15.1943 14.9181H14.0541V13.6978H15.1943V14.9181Z"
                fill="#52555F" />
        </symbol>

        <symbol id="calculator" viewBox="0 0 32 32">
            <path
                d="M17.0312 0H2.96875C1.99949 0 1.21094 0.788555 1.21094 1.75781V18.2422C1.21094 19.2114 1.99949 20 2.96875 20H17.0312C18.0005 20 18.7891 19.2114 18.7891 18.2422V1.75781C18.7891 0.788555 18.0005 0 17.0312 0ZM17.6172 18.2422C17.6172 18.5653 17.3543 18.8281 17.0312 18.8281H2.96875C2.64566 18.8281 2.38281 18.5653 2.38281 18.2422V1.75781C2.38281 1.43473 2.64566 1.17188 2.96875 1.17188H17.0312C17.3543 1.17188 17.6172 1.43473 17.6172 1.75781V18.2422Z"
                fill="#52555F" />
            <path
                d="M15.8594 2.34375H4.14062C3.81703 2.34375 3.55469 2.60609 3.55469 2.92969V7.69531C3.55469 8.01891 3.81703 8.28125 4.14062 8.28125H15.8594C16.183 8.28125 16.4453 8.01891 16.4453 7.69531V2.92969C16.4453 2.60609 16.183 2.34375 15.8594 2.34375ZM15.2734 7.10938H4.72656V3.51562H15.2734V7.10938Z"
                fill="#52555F" />
            <path
                d="M6.48438 9.45312H4.14062C3.81703 9.45312 3.55469 9.71547 3.55469 10.0391V12.3828C3.55469 12.7064 3.81703 12.9688 4.14062 12.9688H6.48438C6.80797 12.9688 7.07031 12.7064 7.07031 12.3828V10.0391C7.07031 9.71547 6.80797 9.45312 6.48438 9.45312ZM5.89844 11.7969H4.72656V10.625H5.89844V11.7969Z"
                fill="#52555F" />
            <path
                d="M6.48438 14.1406H4.14062C3.81703 14.1406 3.55469 14.403 3.55469 14.7266V17.0703C3.55469 17.3939 3.81703 17.6562 4.14062 17.6562H6.48438C6.80797 17.6562 7.07031 17.3939 7.07031 17.0703V14.7266C7.07031 14.403 6.80797 14.1406 6.48438 14.1406ZM5.89844 16.4844H4.72656V15.3125H5.89844V16.4844Z"
                fill="#52555F" />
            <path
                d="M11.1719 9.45312H8.82812C8.50453 9.45312 8.24219 9.71547 8.24219 10.0391V12.3828C8.24219 12.7064 8.50453 12.9688 8.82812 12.9688H11.1719C11.4955 12.9688 11.7578 12.7064 11.7578 12.3828V10.0391C11.7578 9.71547 11.4955 9.45312 11.1719 9.45312ZM10.5859 11.7969H9.41406V10.625H10.5859V11.7969Z"
                fill="#52555F" />
            <path
                d="M11.1719 14.1406H8.82812C8.50453 14.1406 8.24219 14.403 8.24219 14.7266V17.0703C8.24219 17.3939 8.50453 17.6562 8.82812 17.6562H11.1719C11.4955 17.6562 11.7578 17.3939 11.7578 17.0703V14.7266C11.7578 14.403 11.4955 14.1406 11.1719 14.1406ZM10.5859 16.4844H9.41406V15.3125H10.5859V16.4844Z"
                fill="#52555F" />
            <path
                d="M15.8594 9.45312H13.5156C13.192 9.45312 12.9297 9.71547 12.9297 10.0391V17.0703C12.9297 17.3939 13.192 17.6562 13.5156 17.6562H15.8594C16.183 17.6562 16.4453 17.3939 16.4453 17.0703V10.0391C16.4453 9.71547 16.183 9.45312 15.8594 9.45312ZM15.2734 16.4844H14.1016V10.625H15.2734V16.4844Z"
                fill="#52555F" />
        </symbol>

        <symbol id="trash" viewBox="0 0 32 32">
            <path
                d="M16.3081 4.02333L15.9106 2.832C15.7593 2.37827 15.3362 2.07339 14.858 2.07339H11.5177V0.985886C11.5177 0.442337 11.0758 0 10.5324 0H7.47355C6.93027 0 6.48821 0.442337 6.48821 0.985886V2.07339H3.14809C2.66977 2.07339 2.24666 2.37827 2.09533 2.832L1.6979 4.02333C1.6074 4.29456 1.65326 4.59489 1.82039 4.82684C1.98752 5.05879 2.25792 5.19736 2.54384 5.19736H2.95926L3.8736 16.5038C3.94158 17.3427 4.65349 18 5.49463 18H12.6969C13.5379 18 14.2499 17.3427 14.3178 16.5037L15.2321 5.19736H15.4621C15.748 5.19736 16.0184 5.05879 16.1856 4.82698C16.3527 4.59503 16.3986 4.29456 16.3081 4.02333ZM7.5429 1.05469H10.4631V2.07339H7.5429V1.05469ZM13.2665 16.4187C13.2426 16.7141 12.9924 16.9453 12.6969 16.9453H5.49463C5.1991 16.9453 4.94889 16.7141 4.92499 16.4187L4.01738 5.19736H14.174L13.2665 16.4187ZM2.77002 4.14267L3.09591 3.16571C3.10332 3.14319 3.12433 3.12808 3.14809 3.12808H14.858C14.8818 3.12808 14.9026 3.14319 14.9102 3.16571L15.2361 4.14267H2.77002Z"
                fill="#52555F" />
            <path
                d="M11.5846 16.3813C11.5939 16.3819 11.6031 16.382 11.6125 16.382C11.8911 16.382 12.124 16.1637 12.1386 15.8821L12.6338 6.37593C12.6489 6.08507 12.4253 5.83691 12.1346 5.82181C11.843 5.80629 11.5957 6.03013 11.5805 6.321L11.0854 15.8272C11.0703 16.1181 11.2937 16.3662 11.5846 16.3813Z"
                fill="#52555F" />
            <path
                d="M5.89099 15.8833C5.90637 16.1644 6.139 16.3819 6.41709 16.3819C6.4267 16.3819 6.43659 16.3816 6.44634 16.3811C6.73707 16.3653 6.95995 16.1167 6.94416 15.8259L6.42547 6.31967C6.40968 6.0288 6.16111 5.80592 5.87025 5.82185C5.57952 5.83764 5.35664 6.08621 5.37243 6.37707L5.89099 15.8833Z"
                fill="#52555F" />
            <path
                d="M9.00891 16.3819C9.30019 16.3819 9.53625 16.1459 9.53625 15.8546V6.34839C9.53625 6.05711 9.30019 5.82104 9.00891 5.82104C8.71764 5.82104 8.48157 6.05711 8.48157 6.34839V15.8546C8.48157 16.1459 8.71764 16.3819 9.00891 16.3819Z"
                fill="#52555F" />
        </symbol>
    </defs>
</svg>
