<svg xmlns="http://www.w3.org/2000/svg" aria-hidden="true" style="position:absolute;width:0;height:0;overflow:hidden">
    <defs>

        <symbol id="logout" viewBox="0 0 32 32">
            <path fill="#cbccd0" d="M20 28H4V4h16v2h4V0H0v32h24v-6h-4v2z"/>
            <path fill="#cbccd0" d="m24.586 8.586-2.828 2.828L24.344 14H14v4h10.344l-2.586 2.586 2.828 2.828L32 16l-7.414-7.414z"/>
        </symbol>
        <symbol id="icon-reports" viewBox="0 0 24 24">
      <g clip-path="url(#clip0_19402_517)">
        <path d="M5 9.2H8V19H5V9.2ZM10.6 5H13.4V19H10.6V5ZM16.2 13H19V19H16.2V13Z"/>
      </g><defs>
      </symbol>
        
        <symbol id="google" viewBox="0 0 31.25 32">
            <path fill="#2196f3" d="M31.394 13.038c.139 0 .251.115.251.258V16c0 1.012-.092 2.002-.268 2.962C30.015 26.419 23.6 32.054 15.911 32 7.283 31.939.379 24.8.398 15.964.417 7.144 7.405 0 16.021 0c4.221 0 8.052 1.715 10.864 4.501a.263.263 0 0 1 .004.369l-3.736 3.826a.247.247 0 0 1-.35.005C21.038 6.98 18.65 5.924 16.02 5.924c-5.43 0-9.802 4.446-9.839 10.007-.037 5.597 4.382 10.146 9.839 10.146 4.427 0 8.172-2.995 9.407-7.115h-9.155a.255.255 0 0 1-.252-.258v-5.408c0-.142.113-.258.252-.258h15.121z"/>
            <path fill="#1e88e5" d="M31.393 13.038h-1.886c.139 0 .251.115.251.258V16c0 1.012-.092 2.002-.268 2.962-1.299 7.114-7.198 12.57-14.414 13.009.276.017.554.026.834.028 7.689.054 14.104-5.581 15.466-13.038.176-.96.268-1.95.268-2.962v-2.704a.255.255 0 0 0-.252-.258z"/>
            <path fill="#f44336" d="M7.084 11.78 2.339 8.269C5.001 3.338 10.131 0 16.021 0c4.222 0 8.052 1.715 10.864 4.501a.263.263 0 0 1 .004.369l-3.736 3.826a.247.247 0 0 1-.35.005C21.038 6.98 18.65 5.924 16.02 5.924c-3.963 0-7.379 2.399-8.937 5.857z"/>
            <path fill="#e53935" d="m5.714 10.767 1.37 1.014c1.423-3.156 4.393-5.429 7.914-5.802l.079-.009a9.768 9.768 0 0 0-.941-.046c-3.58 0-6.7 1.933-8.421 4.843zM24.999 4.501a.263.263 0 0 1 .004.369l-3.032 3.105c.291.226.569.468.832.726a.246.246 0 0 0 .35-.005l3.736-3.826a.264.264 0 0 0-.004-.369C24.073 1.715 20.243 0 16.021 0c-.317 0-.631.011-.943.03 3.847.235 7.32 1.894 9.921 4.471z"/>
            <path fill="#4caf50" d="M27.482 26.874C24.629 30.027 20.55 32 16.021 32c-6.117 0-11.412-3.6-13.977-8.844l4.844-3.4c1.454 3.704 4.995 6.32 9.133 6.32a9.678 9.678 0 0 0 6.716-2.713l4.745 3.51z"/>
            <path fill="#43a047" d="M6.888 19.756 5.46 20.759c1.659 3.165 4.922 5.318 8.675 5.318.317 0 .631-.016.941-.046-3.726-.364-6.846-2.855-8.187-6.274zM16.021 32c4.529 0 8.608-1.974 11.461-5.126l-1.162-.86c-2.679 3.414-6.698 5.679-11.239 5.957.311.019.625.029.941.029z" />
            <path fill="#ffc107" d="M6.182 16c0 1.328.251 2.595.707 3.756l-4.844 3.4A16.237 16.237 0 0 1 .398 16c0-2.804.704-5.439 1.941-7.731l4.745 3.511A10.238 10.238 0 0 0 6.182 16z"/>
            <path fill="#ffb300" d="m5.46 20.759 1.428-1.003A10.256 10.256 0 0 1 6.181 16c0-1.507.323-2.937.902-4.22l-1.37-1.014a10.244 10.244 0 0 0-1.418 5.164 10.225 10.225 0 0 0 1.164 4.829z"/>
        </symbol>

        <symbol id="close" viewBox="0 0 32 32">
            <path fill="none" stroke="#52555f" stroke-width="4.571" d="m2.286 2.286 27.429 27.429M2.286 29.714 29.715 2.285"/>
        </symbol>

    </defs>
</svg>
